<?xml version="1.0" encoding="utf-8"?>
<!-- Generator: Adobe Illustrator 19.2.0, SVG Export Plug-In . SVG Version: 6.00 Build 0)  -->
<svg version="1.1" id="Layer_1" xmlns="http://www.w3.org/2000/svg" xmlns:xlink="http://www.w3.org/1999/xlink" x="0px" y="0px"
	 viewBox="0 0 182.6 157.4" style="enable-background:new 0 0 182.6 157.4;" xml:space="preserve">
<style type="text/css">
	.st0{display:none;fill:#C73147;}
	.st1{opacity:0.6;fill:#FFFFFF;enable-background:new    ;}
	.st2{opacity:0.8;fill:#FFFFFF;enable-background:new    ;}
	.st3{fill:#FFFFFF;}
	.st4{opacity:0.8;enable-background:new    ;}
	.st5{font-family:'Futura-CondensedExtraBold';}
	.st6{font-size:25.8984px;}
	.st7{letter-spacing:-1;}
	.st8{opacity:0.8;}
</style>
<g id="Layer_2">
</g>
<rect x="-13.5" y="33.5" class="st0" width="181.2" height="158.7"/>
<polygon class="st1" points="65.1,93.1 70.4,60.9 68.7,59 65.6,55.3 "/>
<polygon class="st2" points="76.9,33.2 76.9,33.2 77,32.4 66.1,52.3 71.1,58.2 "/>
<polygon class="st2" points="116.5,56.5 117.6,51.1 90.2,39.7 91.5,40.5 99.5,45.7 116.1,56.3 "/>
<polygon class="st2" points="110.4,55.4 98.8,48 98.8,48 77.4,59.1 84,58.9 84,58.9 113.4,57.4 "/>
<polygon class="st1" points="92.2,44 78.8,35.3 78.8,35.3 75.3,50.9 73.6,58.3 74.8,57.7 96.6,46.6 "/>
<polygon class="st2" points="100.7,13.4 88.3,36.3 93.5,38.4 "/>
<polygon class="st2" points="71.7,61.8 71.7,61.8 66,98.4 66,98.4 66.2,98.1 80.8,61.1 80.8,61.1 "/>
<g>
	<path class="st1" d="M93.9,113.5L83.5,63.1l-19.9,43.4c8.1,4.5,17.3,7.1,27.2,7.1C91.9,113.6,92.9,113.6,93.9,113.5z"/>
	<path class="st2" d="M102.2,99.1L87.2,69l9.1,44.4c0.4,0,0.8-0.1,1.2-0.1L102.2,99.1z"/>
	<path class="st1" d="M110,106.4l-5.9-5.3l-3.9,11.7c1.2-0.2,2.4-0.5,3.4-0.7L110,106.4z"/>
	<path class="st3" d="M90.8,0C59.3,0,33.5,25.8,33.5,57.4c0,21.7,12,40.5,29.7,50.3c8.2,4.6,17.7,7.2,27.7,7.2c1.1,0,2.2,0,3.3-0.1
		c0.8,0,1.5-0.1,2.4-0.2c0.2,0,0.4,0,0.6,0c0.9-0.1,1.8-0.2,2.7-0.4c0.7-0.1,1.4-0.2,2.1-0.4c4.7-0.9,9.3-2.5,13.8-4.6l-0.9-0.9l0,0
		c-3.5,1.6-7.3,2.9-11.1,3.9c-1.2,0.2-2.4,0.5-3.4,0.7c-0.9,0.1-1.8,0.2-2.7,0.4c-0.4,0-0.8,0.1-1.2,0.1c-0.8,0.1-1.5,0.1-2.4,0.1
		c-1.1,0-2,0.1-3.1,0.1c-9.9,0-19.2-2.6-27.2-7.1c-17.3-9.7-29-28-29-49.2c-0.1-31,25.1-56.2,56-56.2S147,26.4,147,57.4
		c0,20.1-10.5,38.4-27.7,48.4l0.6,0.9l0,0c17.5-10.4,28.3-28.8,28.3-49.4C148.3,25.8,122.5,0,90.8,0z"/>
</g>
<g class="st4">
	<path class="st3" d="M13.1,149H7.8v-7.9H5.3v7.9H0v-19.5h5.3v7h2.5v-7h5.3V149z"/>
	<path class="st3" d="M29.7,149H24l-2.6-7c0-0.1-0.1-0.3-0.1-0.5c-0.1-0.2-0.1-0.4-0.2-0.7l0,1.3v6.8h-5.2v-19.5h5.4
		c2.4,0,4.2,0.5,5.3,1.4c1.5,1.2,2.3,2.9,2.3,5.1c0,2.4-1,4-3,4.9L29.7,149z M21.1,138.2h0.4c0.6,0,1.1-0.2,1.5-0.7s0.6-1.1,0.6-1.8
		c0-1.5-0.8-2.2-2.3-2.2h-0.2V138.2z"/>
</g>
<text transform="matrix(1 0 0 1 30.0659 149.001)" class="st3 st5 st6 st7"> </text>
<g class="st4">
	<path class="st3" d="M37.7,149v-19.5h6.1c2.3,0,4,0.5,5.1,1.5c1.1,1,1.7,2.4,1.7,4c0,2.4-1.2,3.8-3.6,4c1.4,0.2,2.4,0.7,3,1.4
		c0.6,0.7,1,1.7,1,3.1c0,1.7-0.5,3-1.6,4c-1.1,1-2.5,1.5-4.3,1.5H37.7z M42.9,136.9h0.4c0.6,0,1.1-0.1,1.5-0.4
		c0.4-0.3,0.6-0.7,0.6-1.2c0-1.1-0.6-1.7-1.9-1.7c-0.1,0-0.1,0-0.2,0c-0.1,0-0.2,0-0.3,0V136.9z M42.9,144.9c0.1,0,0.2,0,0.3,0
		c0.1,0,0.1,0,0.2,0c0.7,0,1.2-0.2,1.6-0.5c0.4-0.4,0.6-0.8,0.6-1.4c0-0.6-0.2-1.1-0.6-1.4c-0.4-0.3-0.9-0.5-1.6-0.5h-0.4V144.9z"/>
	<path class="st3" d="M61.2,129.5h5.3V143c0,1.1-0.2,2.1-0.5,2.8c-0.4,0.7-0.9,1.4-1.8,2c-1.1,0.8-2.5,1.2-4.1,1.2
		c-1.8,0-3.3-0.4-4.5-1.3c-1.6-1.1-2.3-2.9-2.3-5.4v-12.8h5.3V142c0,0.8,0.1,1.4,0.3,1.8c0.2,0.4,0.6,0.5,1,0.5c0.5,0,0.9-0.2,1-0.5
		c0.2-0.3,0.3-1,0.3-1.8V129.5z"/>
	<path class="st3" d="M81.7,149H68.3v-0.4l4.6-10.4c0.3-0.6,0.6-1.1,0.8-1.5c0.2-0.4,0.4-0.7,0.4-0.9c0.2-0.3,0.5-0.9,1-1.6h-5.7
		v-4.7h12.9v0.5l-4.8,10.6c-0.3,0.7-0.6,1.3-0.9,2c-0.3,0.6-0.6,1.3-0.9,1.9c0.6,0,1-0.1,1.3-0.1c0.3,0,0.5,0,0.6,0l4.1-0.1V149z"/>
	<path class="st3" d="M96.8,149H83.4v-0.4l4.6-10.4c0.3-0.6,0.6-1.1,0.8-1.5c0.2-0.4,0.4-0.7,0.4-0.9c0.2-0.3,0.5-0.9,1-1.6h-5.7
		v-4.7h12.9v0.5l-4.8,10.6c-0.3,0.7-0.6,1.3-0.9,2c-0.3,0.6-0.6,1.3-0.9,1.9c0.6,0,1-0.1,1.3-0.1c0.3,0,0.5,0,0.6,0l4.1-0.1V149z"/>
	<path class="st3" d="M115.8,149h-5.1l-1.2-6.8c-0.2-1.3-0.4-2.5-0.5-3.4c-0.1-0.5-0.1-0.9-0.2-1.2s-0.1-0.6-0.1-0.7
		c0,0.3-0.1,1-0.2,1.9c0,0.5-0.1,1-0.1,1.5c-0.1,0.5-0.1,1.1-0.2,1.7l-0.9,7.1h-4.9L98,129.5h5.2l0.9,5.4c0.3,2.1,0.6,3.8,0.7,5
		l0.2,1.8l0.2-1.5c0.2-1.8,0.4-3.5,0.7-5.1l1-5.6h4.4l0.9,4.7c0.4,2.2,0.8,4.8,1.1,7.8c0.1-1.3,0.2-2.5,0.3-3.6s0.2-2,0.4-2.8l1-6.1
		h5.1L115.8,149z"/>
	<path class="st3" d="M135.7,139.3c0,2.9-0.7,5.2-2,7c-1.3,1.8-3.1,2.7-5.3,2.7c-1.9,0-3.6-0.7-4.9-2.1c-1.7-1.7-2.6-4.4-2.6-7.8
		c0-3.3,0.9-5.9,2.7-7.7c1.3-1.3,2.9-2,4.8-2c2.3,0,4,0.9,5.4,2.7C135.1,133.9,135.7,136.3,135.7,139.3z M130.3,139.3
		c0-3.5-0.6-5.2-1.9-5.2c-0.6,0-1.1,0.5-1.5,1.4c-0.4,0.8-0.5,2.1-0.5,3.7c0,1.6,0.2,2.9,0.5,3.8c0.3,0.9,0.8,1.3,1.4,1.3
		c0.6,0,1.1-0.4,1.4-1.3C130.1,142.1,130.3,140.9,130.3,139.3z"/>
	<path class="st3" d="M151.9,149h-5.7l-2.6-7c0-0.1-0.1-0.3-0.1-0.5c-0.1-0.2-0.1-0.4-0.2-0.7l0,1.3v6.8H138v-19.5h5.4
		c2.4,0,4.2,0.5,5.3,1.4c1.5,1.2,2.3,2.9,2.3,5.1c0,2.4-1,4-3,4.9L151.9,149z M143.3,138.2h0.4c0.6,0,1.1-0.2,1.5-0.7
		s0.6-1.1,0.6-1.8c0-1.5-0.8-2.2-2.3-2.2h-0.2V138.2z"/>
	<path class="st3" d="M153.6,149v-19.5h4.6c2.6,0,4.6,0.7,6.1,2.1c1.9,1.8,2.9,4.4,2.9,7.7c0,3.2-0.8,5.7-2.4,7.5
		c-1.4,1.5-3.4,2.3-6.1,2.3H153.6z M158.9,144.3c1.9-0.1,2.8-1.7,2.8-4.9c0-1.6-0.2-2.8-0.7-3.7c-0.5-0.9-1.1-1.4-1.9-1.4h-0.2
		V144.3z"/>
	<path class="st3" d="M181.9,149h-13.4v-0.4l4.6-10.4c0.3-0.6,0.6-1.1,0.8-1.5c0.2-0.4,0.4-0.7,0.4-0.9c0.2-0.3,0.5-0.9,1-1.6h-5.7
		v-4.7h12.9v0.5l-4.8,10.6c-0.3,0.7-0.6,1.3-0.9,2c-0.3,0.6-0.6,1.3-0.9,1.9c0.6,0,1-0.1,1.3-0.1c0.3,0,0.5,0,0.6,0l4.1-0.1V149z"/>
</g>
<g class="st8">
	<g>
		<polygon class="st3" points="105.1,99.9 111.6,105.5 111.6,105.5 114.7,108.3 128.7,120.5 120,106.8 119.4,105.8 114.7,98.4 		"/>
	</g>
</g>
</svg>
