<?xml version="1.0" encoding="utf-8"?>
<!-- Generator: Adobe Illustrator 19.2.0, SVG Export Plug-In . SVG Version: 6.00 Build 0)  -->
<svg version="1.1" id="Layer_1" xmlns="http://www.w3.org/2000/svg" xmlns:xlink="http://www.w3.org/1999/xlink" x="0px" y="0px"
	 viewBox="0 0 200 210.3" style="enable-background:new 0 0 200 210.3;" xml:space="preserve">
<style type="text/css">
	.st0{fill:#E03443;enable-background:new    ;}
	.st1{fill:#F79754;enable-background:new    ;}
	.st2{fill:#6FC5A2;enable-background:new    ;}
	.st3{fill:#5066AF;enable-background:new    ;}
	.st4{fill:#391B56;enable-background:new    ;}
	.st5{opacity:0.6;fill:none;}
	.st6{fill:#391B56;}
</style>
<polygon class="st0" points="55.2,162.4 64.5,106.2 61.4,102.9 56.1,96.5 "/>
<polygon class="st1" points="75.8,57.9 75.8,57.9 76,56.5 56.9,91.2 65.7,101.4 "/>
<polygon class="st2" points="144.8,98.6 146.8,89.1 99,69.2 101.2,70.6 115.2,79.7 144.1,98.2 "/>
<polygon class="st3" points="134.1,96.7 114,83.8 114,83.8 76.6,103.1 88.1,102.7 88.1,102.7 139.4,100.2 "/>
<polygon class="st0" points="102.5,76.8 79.1,61.6 79.1,61.6 72.9,88.7 70,101.6 72.1,100.6 110.1,81.3 "/>
<polygon class="st4" points="117.2,23.4 95.7,63.2 104.7,66.9 "/>
<polygon class="st4" points="66.7,107.8 66.7,107.8 56.7,171.7 56.7,171.7 57.1,171 82.5,106.6 82.5,106.6 "/>
<g>
	<path class="st2" d="M105.3,197.9l-18.1-87.9l-34.7,75.8c14.2,7.8,30.2,12.3,47.4,12.3C101.8,198.2,103.7,198.2,105.3,197.9z"/>
	<path class="st1" d="M119.9,172.9l-26.3-52.6l15.8,77.4c0.6,0,1.4-0.2,2.1-0.2L119.9,172.9z"/>
	<path class="st0" d="M133.5,185.6l-10.3-9.2l-6.8,20.3c2.1-0.4,4.1-0.8,6-1.2L133.5,185.6z"/>
	<path class="st5" d="M100,0C45,0,0,45,0,100.2c0,37.8,20.9,70.6,51.7,87.7c14.4,8,30.8,12.5,48.3,12.5c1.8,0,3.9,0,5.7-0.2
		c1.4,0,2.7-0.2,4.1-0.4c0.4,0,0.6,0,1,0c1.6-0.2,3.1-0.4,4.7-0.6c1.2-0.2,2.5-0.4,3.7-0.6c8.2-1.6,16.2-4.3,24-8l-1.6-1.6l0,0
		c-6.2,2.9-12.7,5.1-19.3,6.8c-2.1,0.4-4.1,0.8-6,1.2c-1.6,0.2-3.1,0.4-4.7,0.6c-0.6,0-1.4,0.2-2.1,0.2c-1.4,0.2-2.7,0.2-4.1,0.2
		c-1.8,0-3.5,0.2-5.3,0.2c-17.2,0-33.5-4.5-47.4-12.3C22.6,169,2.3,137,2.3,100C2.1,46,46,2.1,100,2.1s97.9,43.9,97.9,98.2
		c0,35.1-18.3,66.9-48.3,84.4l1,1.6l0,0c30.6-18.1,49.3-50.3,49.3-86.2C200.2,45,155.2,0,100,0z"/>
</g>
<g>
	<g>
		<polygon class="st6" points="124.8,174.3 136.3,184 136.3,184 141.7,188.9 166.1,210.3 150.9,186.2 149.9,184.6 141.7,171.7 		"/>
	</g>
</g>
</svg>
