<?xml version="1.0" encoding="utf-8"?>
<!-- Generator: Adobe Illustrator 19.2.0, SVG Export Plug-In . SVG Version: 6.00 Build 0)  -->
<svg version="1.1" id="Layer_1" xmlns="http://www.w3.org/2000/svg" xmlns:xlink="http://www.w3.org/1999/xlink" x="0px" y="0px"
	 viewBox="0 0 18 18" style="enable-background:new 0 0 18 18;" xml:space="preserve">
<style type="text/css">
	.st0{fill:#FFFFFF;}
</style>
<path class="st0" d="M14.6,11.2c-1.2,0-2.2,0.6-2.8,1.5l-5.3-2.6C6.7,9.8,6.8,9.4,6.8,9c0-0.4-0.1-0.8-0.2-1.2l5.3-2.6
	c0.6,0.9,1.6,1.5,2.8,1.5c1.9,0,3.4-1.5,3.4-3.4C18,1.5,16.5,0,14.6,0c-1.9,0-3.4,1.5-3.4,3.4c0,0.4,0.1,0.8,0.2,1.2L6.2,7.2
	c-0.6-1-1.7-1.5-2.8-1.5C1.5,5.6,0,7.1,0,9s1.5,3.4,3.4,3.4c1.2,0,2.2-0.6,2.8-1.5l5.3,2.6c-0.1,0.4-0.2,0.8-0.2,1.2
	c0,1.9,1.5,3.4,3.4,3.4c1.9,0,3.4-1.5,3.4-3.4C18,12.8,16.5,11.2,14.6,11.2z"/>
</svg>
