<?xml version="1.0" encoding="utf-8"?>
<!-- Generator: Adobe Illustrator 19.2.0, SVG Export Plug-In . SVG Version: 6.00 Build 0)  -->
<svg version="1.1" id="Layer_1" xmlns="http://www.w3.org/2000/svg" xmlns:xlink="http://www.w3.org/1999/xlink" x="0px" y="0px"
	 viewBox="0 0 80.4 40" style="enable-background:new 0 0 80.4 40;" xml:space="preserve">
<style type="text/css">
	.st0{fill:#3A599D;}
	.st1{fill:#5FA9DD;}
	.st2{fill:#FFFFFF;}
</style>
<rect x="40.4" class="st0" width="40" height="40"/>
<rect class="st1" width="40" height="40"/>
<path class="st2" d="M58,29.2h3.8V20h2.5l0.3-3.2h-2.9v-1.6c0-0.8,0.1-1.3,1.3-1.3h1.6v-3.1h-2.5c-3,0-4.1,1.5-4.1,4.1v1.9h-1.9V20
	H58V29.2z"/>
<path class="st2" d="M30.1,13.9c-0.7,0.3-1.5,0.5-2.4,0.6c0.9-0.5,1.5-1.3,1.8-2.2c-0.8,0.5-1.7,0.8-2.6,1c-0.7-0.8-1.8-1.3-3-1.3
	c-2.3,0-4.1,1.8-4.1,4c0,0.3,0,0.6,0.1,0.9c-3.4-0.1-6.4-1.7-8.4-4.2c-0.4,0.6-0.6,1.3-0.6,2c0,1.4,0.7,2.6,1.8,3.4
	c-0.7,0-1.3-0.2-1.9-0.5c0,0,0,0,0,0.1c0,2,1.4,3.6,3.3,4c-0.3,0.1-0.7,0.1-1.1,0.1c-0.3,0-0.5,0-0.8-0.1c0.5,1.6,2,2.8,3.8,2.8
	c-1.4,1.1-3.2,1.7-5.1,1.7c-0.3,0-0.7,0-1-0.1c1.8,1.1,4,1.8,6.3,1.8c7.5,0,11.7-6.2,11.7-11.5c0-0.2,0-0.4,0-0.5
	C28.8,15.4,29.5,14.8,30.1,13.9z"/>
</svg>
